<?xml version="1.0" encoding="utf-8"?>
<!-- Generator: Adobe Illustrator 26.3.1, SVG Export Plug-In . SVG Version: 6.00 Build 0)  -->
<svg version="1.1" id="Layer_1" xmlns="http://www.w3.org/2000/svg" xmlns:xlink="http://www.w3.org/1999/xlink" x="0px" y="0px"
	 viewBox="0 0 373.9 226.2" style="enable-background:new 0 0 373.9 226.2;" xml:space="preserve">
<style type="text/css">
	.st0{fill:#FFFFFF;}
</style>
<g>
	<path class="st0" d="M372.7,0C372.6,0,372.6,0,372.7,0L265.8,0.6c-0.7,0-1.2,0.6-1.2,1.3c0,0.2,0.1,0.4,0.2,0.6
		c16.9,27.7,15.7,48.5-0.9,69.4c-0.2,0.3-0.6,0.3-0.9,0.1c-0.1-0.1-0.2-0.3-0.2-0.5l-2-69.6c-0.1-0.8-0.7-1.3-1.4-1.3h-83.7
		c-0.8,0-1.4,0.6-1.5,1.4c0,0.2,0,0.4,0.1,0.6c12.4,30.3-0.8,48.6-16.4,65.2c-0.4,0.5-1.1,0.5-1.6,0.1c-0.3-0.3-0.4-0.7-0.3-1.1
		l14.7-64.4c0.2-0.8-0.3-1.6-1.1-1.8c-0.1,0-0.2,0-0.3,0h-68.7c-0.8,0-1.4,0.6-1.5,1.4v30c0,0.8-0.6,1.5-1.4,1.5
		c-0.4,0-0.7-0.1-1-0.4L59.4,1.5c-0.7-0.6-1.5-0.9-2.4-0.9H1.2C0.5,0.6,0,1.1,0,1.8v87.7c0,0.7,0.5,1.2,1.2,1.2c0.1,0,0.2,0,0.4-0.1
		c4.5-1.3,9.4-2.5,14.8-3.7c7.3-1.6,19.8-3,29.7-4.2c0.7-0.1,1.3-0.7,1.3-1.4V52.1c0-0.8,0.7-1.5,1.5-1.4c0.4,0,0.8,0.2,1.1,0.5
		l18.7,29.5c0.5,0.6,1.4,0.7,2,0.3l41.5-29c0.6-0.5,1.6-0.3,2,0.3c0.3,0.4,0.4,0.9,0.2,1.4l-10,25.2c-0.3,0.7,0,1.6,0.8,1.9
		c0.2,0.1,0.3,0.1,0.5,0.1c13.7,0.5,28.7,1.6,45,3.4h0.3c9.8,1.3,25.6,3.4,33.1,4.6c0.5,0.1,0.9-0.1,1.2-0.4
		c2.6-2.7,5.2-5.4,7.6-8.1c0.3-0.4,0.8-0.5,1.3-0.5c8,1,15.9,2,23.9,3c0.7,0.1,1.3,0.7,1.3,1.4v9.2c0,0.7,0.5,1.3,1.3,1.4l35.1,3.4
		c8.5,0.8,31.9,1.4,35.7,1.4c0.7,0,1.2-0.5,1.2-1.2c0-0.1,0-0.2,0-0.2l-1.9-10c-0.2-0.7,0.2-1.3,0.9-1.5c0.1,0,0.3,0,0.4,0
		c9.8,0.1,20.1-0.2,31.1-0.9c0.7,0,1.3,0.5,1.3,1.2c0,0.1,0,0.1,0,0.2l-1.2,9.7c-0.1,0.7,0.4,1.3,1.1,1.4c0.1,0,0.2,0,0.3,0
		c20.2-2.1,27-3.9,48.4-10c0.5-0.2,0.9-0.6,0.9-1.2V1.2C373.9,0.6,373.3,0,372.7,0z M220.3,64.7c-0.1,0-0.1,0-0.2,0
		c-4.3-0.4-8.5-0.8-12.9-1.3c-0.8-0.1-1.4-0.8-1.3-1.6c0-0.2,0.1-0.4,0.2-0.6l0,0c3.7-6,6.4-12.6,8.1-19.5c0.2-0.8,1-1.3,1.7-1.1
		c0.5,0.1,0.9,0.5,1,0.9c2.6,6.9,4.2,14.2,4.6,21.6C221.7,64,221.1,64.7,220.3,64.7z M323.6,65.6c-0.1,0.6-0.6,1-1.1,1.1
		c-5.9,0.4-11.6,0.7-17.2,0.9c-0.7,0-1.3-0.5-1.3-1.2c0-0.3,0.1-0.6,0.2-0.8l0,0c5-8.1,9.3-16.6,12.8-25.4c0.3-0.6,1-0.9,1.6-0.7
		c0.3,0.1,0.5,0.4,0.7,0.7C321.3,44.8,325,54.8,323.6,65.6z"/>
	<path class="st0" d="M372.6,96.5c-0.1,0-0.3,0-0.4,0.1l-1.5,0.5c-19.7,6.5-38.7,9.2-64.6,10.3c-23.2,0.8-46.5-0.2-69.6-2.9
		c-11-1.4-28.4-4-39.3-6c-22.9-4.2-46-7.2-69.1-9.1l-0.7,0c-45-2.7-87.4,0.2-108.8,4.7C12,95.4,6.1,97,0.9,98.5
		C0.3,98.7,0,99.2,0,99.7v55.2c0,0.7,0.5,1.2,1.2,1.3c0.3,0,0.6-0.1,0.8-0.3l25.1-18.8c0.6-0.5,1.5-0.4,2,0.3
		c0.2,0.3,0.3,0.6,0.3,0.9v44.3c0,0.8,0.6,1.4,1.4,1.5c0,0,0,0,0,0h74.7c0.8,0,1.4-0.7,1.4-1.5c0-0.5-0.2-0.9-0.6-1.2
		c-18.2-12.6-30.7-25.4-33-44.4c-0.1-0.8,0.4-1.5,1.2-1.6c0.1,0,0.2,0,0.3,0h20.7c0.6,0,1.1-0.3,1.3-0.9l22.9-31.1
		c0.4-0.5,1.1-0.6,1.6-0.2c0.3,0.2,0.4,0.6,0.4,1l-9.9,78.2c-0.1,0.8,0.5,1.5,1.3,1.6c0.1,0,0.1,0,0.2,0h134.3
		c0.8,0,1.4-0.7,1.4-1.5c0-0.4-0.2-0.8-0.5-1.1l-29-22.8c-0.2-0.2-0.5-0.3-0.8-0.3l-43-2.9c-0.8,0-1.4-0.7-1.4-1.4v-4.3
		c0-0.8,0.7-1.5,1.5-1.5c0,0,0.1,0,0.1,0c13.2,1,26.6,2.1,40.7,3.2c0.8,0.1,1.5-0.5,1.6-1.3c0-0.1,0-0.1,0-0.2l-0.6-16.9
		c0-0.7-0.6-1.3-1.3-1.4l-40.7-4.5c-0.7-0.1-1.3-0.7-1.3-1.4V122c0-0.8,0.6-1.5,1.5-1.5c0.1,0,0.1,0,0.2,0l41.4,5.1
		c0.5,0.1,1.1-0.2,1.4-0.6l16.1-12.3c0.5-0.4,1.2-0.3,1.6,0.2c0.1,0.1,0.2,0.3,0.2,0.4l16.2,69.6c0.1,0.7,0.7,1.1,1.4,1.1H300
		c0.8,0,1.4-0.7,1.4-1.5c0-0.2,0-0.4-0.1-0.5l-9.6-21.7c-0.3-0.7,0-1.6,0.8-1.9c0.2-0.1,0.4-0.1,0.6-0.1c16.9,0.5,27.2,7,27.7,24.4
		c0,0.8,0.7,1.4,1.5,1.4h50.1c0.8,0,1.4-0.6,1.5-1.4c0-0.3-0.1-0.7-0.3-0.9l-7.7-9.3l-9.5-11.5c-0.5-0.6-0.4-1.5,0.2-2
		c0.2-0.2,0.5-0.3,0.8-0.3c4.1-0.5,7.9-2.2,11-4.9c3.6-3.2,5.7-7.9,5.6-12.7V97.7C373.9,97,373.3,96.5,372.6,96.5z M297.4,143.2
		h-11.9c-0.6,0-1.1-0.4-1.4-0.9l-5.1-12.7c-0.3-0.7,0.1-1.6,0.8-1.9c0.2-0.1,0.4-0.1,0.6-0.1l24.6,0.3h3.8c0.7,0,1.3,0.5,1.4,1.2
		C312,136.7,305.6,143.2,297.4,143.2z"/>
	<path class="st0" d="M101.6,198.7c4.4,0,6,2.6,6.6,6.2h8.3c-0.8-7.6-5.6-13-14.5-13c-10.4,0-16,7.3-16,17.1s5.6,17.2,16,17.2
		c9,0,13.8-5.3,14.5-13h-8.3c-0.5,3.7-2.2,6.3-6.6,6.3c-5.5,0-7.3-4.2-7.3-10.4C94.2,202.8,96.1,198.7,101.6,198.7z"/>
	<path class="st0" d="M129.5,201.2c-7.9,0-12.6,5.2-12.6,12.5s4.7,12.5,12.6,12.5s12.5-5.2,12.5-12.5S137.3,201.2,129.5,201.2z
		 M129.5,220.7c-3.3,0-5.2-2.4-5.2-7s2-7,5.2-7s5.2,2.4,5.2,7S132.7,220.7,129.5,220.7z"/>
	<path class="st0" d="M154.7,210.7c-3.6-0.8-5.1-0.8-5.1-2.5c0-1.2,1.1-1.9,3.1-1.9c2.4,0,3.4,1,3.6,2.9h6.9c-0.2-4.1-3.2-8-10.7-8
		c-6.6,0-10.3,3.3-10.3,7.5c0,4.9,4.4,6.4,8.4,7.3c3.7,0.8,5.9,1.1,5.9,3.1c0,1.3-1.2,2-3.2,2c-2.9,0-4.5-1.2-4.7-3.5h-6.9
		c0.2,4.8,3.4,8.5,11.9,8.5c6.5,0,10.3-2.7,10.3-7.7C163.9,213.2,159.3,211.7,154.7,210.7z"/>
	<path class="st0" d="M194,201.2c-3.8,0-5.9,1.8-7.9,4.1H186c-0.9-2.6-3.4-4.3-6.2-4.1c-3,0-5.8,1.5-7.4,4.1h-0.1V202H165v23.5h7.4
		v-13.6c0-3.3,1.5-4.7,3.8-4.7c2.6,0,3.4,1.2,3.4,4.7v13.6h7.3v-13.6c0-3.3,1.5-4.7,3.8-4.7c2.6,0,3.4,1.2,3.4,4.7v13.6h7.4v-15.9
		C201.5,204.2,198.7,201.2,194,201.2z"/>
	<path class="st0" d="M226.7,215.7c0-8.5-4.1-14.4-12.1-14.4c-7.5,0-12.1,5.3-12.1,12.5c0,7.3,4.7,12.5,12.5,12.5
		c6.4,0,10.1-3.1,11.4-7.9H219c-0.5,1.1-1.7,2.3-4.2,2.3c-2.7,0.1-4.9-2-5.1-4.6c0-0.1,0-0.3,0-0.4H226.7z M214.6,206.3
		c2.8,0,4.8,1.7,4.8,4.9h-9.6C209.8,208,211.8,206.3,214.6,206.3z"/>
	<path class="st0" d="M236.7,195.4h-7.3v6.6h-3.3v5.5h3.3v10.3c0,5.3,1.5,8.1,6.9,8.1c1.5,0,3.1-0.2,4.6-0.5v-5.5
		c-3.1,0-4.1,0-4.1-2.7v-9.8h4.1V202h-4.1V195.4z"/>
	<path class="st0" d="M245.9,192.6c-2.1,0-3.7,1.2-3.7,3.3s1.6,3.3,3.7,3.3c2.1,0,3.7-1.1,3.7-3.3S247.9,192.6,245.9,192.6z"/>
	<rect x="242.2" y="202" class="st0" width="7.4" height="23.5"/>
	<path class="st0" d="M286.9,210.7c-3.6-0.8-5.1-0.8-5.1-2.5c0-1.2,1.1-1.9,3.1-1.9c2.4,0,3.4,1,3.6,2.9h6.9c-0.2-4.1-3.2-8-10.7-8
		c-6.6,0-10.3,3.3-10.3,7.5c0,4.9,4.4,6.4,8.4,7.3c3.7,0.8,5.9,1.1,5.9,3.1c0,1.3-1.1,2-3.2,2c-2.9,0-4.5-1.2-4.7-3.5H274
		c0.1-0.3,0.1-0.7,0.1-1h-7.2c-0.2,2.1-1.2,4.1-4.2,4.1s-4.7-2.6-4.7-7c0-4.4,1.7-7,4.7-7c3,0,4,2.1,4.2,4h7.2
		c-0.6-5.5-4.7-9.5-11.5-9.5c-7.3,0-12,5.2-12,12.5s4.7,12.5,12.1,12.5c6.2,0,10.3-3.4,11.2-8.3c0.3,4.7,3.5,8.3,11.8,8.3
		c6.5,0,10.3-2.7,10.3-7.7C296.1,213.2,291.5,211.7,286.9,210.7z"/>
	<path class="st0" d="M300.3,192.7C300.3,192.7,300.3,192.7,300.3,192.7c-3.6,0-6.5,2.9-6.5,6.5c0,3.6,2.9,6.5,6.5,6.5
		c3.6,0,6.5-2.9,6.5-6.5C306.8,195.6,303.9,192.7,300.3,192.7z M303.9,202.7L303.9,202.7c-2,2-5.2,2-7.2,0c-2-2-2-5.2,0-7.2
		s5.2-2,7.2,0c1,1,1.5,2.2,1.5,3.6C305.4,200.5,304.9,201.8,303.9,202.7z"/>
	<path class="st0" d="M301.5,197.9c0.2,0.2,0.4,0.3,0.7,0.3c0.5,0,0.9-0.4,0.9-0.9c0-0.5-0.4-0.9-0.9-0.9c-0.3,0-0.5,0.1-0.7,0.3
		C301.2,197,301.1,197.5,301.5,197.9C301.5,197.9,301.5,197.9,301.5,197.9z"/>
	<path class="st0" d="M298.5,198.2c0.2,0,0.5-0.1,0.7-0.3c0.2-0.2,0.3-0.4,0.3-0.7c0-0.2-0.1-0.5-0.3-0.6c-0.2-0.2-0.4-0.3-0.7-0.3
		c-0.5,0.1-0.9,0.5-0.8,1C297.7,197.8,298,198.2,298.5,198.2z"/>
	<path class="st0" d="M303.6,199.6c-0.2-0.1-0.5,0.1-0.5,0.3c-0.4,1.2-1.5,2-2.8,2c-1.3,0-2.4-0.8-2.8-2c-0.1-0.2-0.3-0.3-0.5-0.3
		c-0.2,0.1-0.4,0.3-0.3,0.5c0,0,0,0,0,0c0.5,1.6,1.9,2.7,3.6,2.7c1.7,0,3.2-1,3.6-2.7C303.9,199.9,303.8,199.6,303.6,199.6z"/>
</g>
</svg>
